<svg xmlns="http://www.w3.org/2000/svg" width="430" height="560" viewBox="0 0 430 560">
<rect width="100%" height="100%" fill="white"/>
<path d="M 104.919 41.613 L 178.306 188.387 L 251.694 41.613 Z" fill="#1f38ff" fill-opacity="0.23" stroke="#1f38ff" stroke-width="1.5" fill-rule="evenodd"/>
<path d="M 178.306 41.613 L 251.694 188.387 L 325.081 41.613 Z" fill="#ff2a2a" fill-opacity="0.23" stroke="#ff2a2a" stroke-width="1.5" fill-rule="evenodd"/>
<circle cx="104.919" cy="41.613" r="3" fill="#1f38ff"/>
<circle cx="178.306" cy="188.387" r="3" fill="#1f38ff"/>
<circle cx="251.694" cy="41.613" r="3" fill="#1f38ff"/>
<circle cx="178.306" cy="41.613" r="3" fill="#ff2a2a"/>
<circle cx="251.694" cy="188.387" r="3" fill="#ff2a2a"/>
<circle cx="325.081" cy="41.613" r="3" fill="#ff2a2a"/>
<text x="215.0" y="240" text-anchor="middle" font-family="Arial, sans-serif" font-size="20" fill="#202124">Union</text>
<line x1="215.0" y1="257" x2="215.0" y2="292" stroke="#000" stroke-width="13"/><polygon points="197.0,286 233.0,286 215.0,312" fill="#000"/>
<path d="M 251.694 492.387 L 215 419 L 178.306 492.387 L 104.919 345.613 L 325.081 345.613 Z" fill="#31ff31" fill-opacity="0.80" stroke="#12b81f" stroke-width="1.5" fill-rule="evenodd"/>
<circle cx="251.694" cy="492.387" r="3" fill="#087d12"/>
<circle cx="215" cy="419" r="3" fill="#087d12"/>
<circle cx="178.306" cy="492.387" r="3" fill="#087d12"/>
<circle cx="104.919" cy="345.613" r="3" fill="#087d12"/>
<circle cx="325.081" cy="345.613" r="3" fill="#087d12"/>
<text x="16" y="548" font-family="Arial, sans-serif" font-size="12" fill="#6b7280">02. triangles / union</text>
</svg>