<svg xmlns="http://www.w3.org/2000/svg" width="430" height="560" viewBox="0 0 430 560">
<rect width="100%" height="100%" fill="white"/>
<path d="M 141.613 41.613 L 288.387 41.613 L 288.387 188.387 L 141.613 188.387 Z" fill="#1f38ff" fill-opacity="0.23" stroke="#1f38ff" stroke-width="1.5" fill-rule="evenodd"/>
<path d="M 170.968 70.968 L 259.032 70.968 L 259.032 159.032 L 170.968 159.032 Z" fill="#ff2a2a" fill-opacity="0.23" stroke="#ff2a2a" stroke-width="1.5" fill-rule="evenodd"/>
<circle cx="141.613" cy="41.613" r="3" fill="#1f38ff"/>
<circle cx="288.387" cy="41.613" r="3" fill="#1f38ff"/>
<circle cx="288.387" cy="188.387" r="3" fill="#1f38ff"/>
<circle cx="141.613" cy="188.387" r="3" fill="#1f38ff"/>
<circle cx="170.968" cy="70.968" r="3" fill="#ff2a2a"/>
<circle cx="259.032" cy="70.968" r="3" fill="#ff2a2a"/>
<circle cx="259.032" cy="159.032" r="3" fill="#ff2a2a"/>
<circle cx="170.968" cy="159.032" r="3" fill="#ff2a2a"/>
<text x="215.0" y="240" text-anchor="middle" font-family="Arial, sans-serif" font-size="20" fill="#202124">DifferenceRev</text>
<line x1="215.0" y1="257" x2="215.0" y2="292" stroke="#000" stroke-width="13"/><polygon points="197.0,286 233.0,286 215.0,312" fill="#000"/>
<text x="215.0" y="426.0" text-anchor="middle" font-family="Arial, sans-serif" font-size="22" fill="#12b81f">Empty</text>
<text x="16" y="548" font-family="Arial, sans-serif" font-size="12" fill="#6b7280">25. contained rect / differenceRev</text>
</svg>