<svg xmlns="http://www.w3.org/2000/svg" width="430" height="560" viewBox="0 0 430 560">
<rect width="100%" height="100%" fill="white"/>
<path d="M 112.258 70.968 L 210.108 168.817 L 249.247 70.968 Z M 190.538 70.968 L 347.097 168.817 L 347.097 70.968 Z" fill="#1f38ff" fill-opacity="0.23" stroke="#1f38ff" stroke-width="1.5" fill-rule="evenodd"/>
<path d="M 170.968 41.613 L 170.968 129.677 L 82.903 41.613 Z M 190.538 188.387 L 190.538 41.613 L 317.742 41.613 L 317.742 188.387 Z" fill="#ff2a2a" fill-opacity="0.23" stroke="#ff2a2a" stroke-width="1.5" fill-rule="evenodd"/>
<circle cx="112.258" cy="70.968" r="3" fill="#1f38ff"/>
<circle cx="210.108" cy="168.817" r="3" fill="#1f38ff"/>
<circle cx="249.247" cy="70.968" r="3" fill="#1f38ff"/>
<circle cx="190.538" cy="70.968" r="3" fill="#1f38ff"/>
<circle cx="347.097" cy="168.817" r="3" fill="#1f38ff"/>
<circle cx="347.097" cy="70.968" r="3" fill="#1f38ff"/>
<circle cx="170.968" cy="41.613" r="3" fill="#ff2a2a"/>
<circle cx="170.968" cy="129.677" r="3" fill="#ff2a2a"/>
<circle cx="82.903" cy="41.613" r="3" fill="#ff2a2a"/>
<circle cx="190.538" cy="188.387" r="3" fill="#ff2a2a"/>
<circle cx="190.538" cy="41.613" r="3" fill="#ff2a2a"/>
<circle cx="317.742" cy="41.613" r="3" fill="#ff2a2a"/>
<circle cx="317.742" cy="188.387" r="3" fill="#ff2a2a"/>
<text x="215.0" y="240" text-anchor="middle" font-family="Arial, sans-serif" font-size="20" fill="#202124">Intersect</text>
<line x1="215.0" y1="257" x2="215.0" y2="292" stroke="#000" stroke-width="13"/><polygon points="197.0,286 233.0,286 215.0,312" fill="#000"/>
<path d="M 170.968 433.677 L 112.258 374.968 L 170.968 374.968 Z M 210.108 472.817 L 237.505 404.323 L 190.538 374.968 L 190.538 453.247 Z M 317.742 454.47 L 237.505 404.323 L 249.247 374.968 L 317.742 374.968 Z" fill="#31ff31" fill-opacity="0.80" stroke="#12b81f" stroke-width="1.5" fill-rule="evenodd"/>
<circle cx="170.968" cy="433.677" r="3" fill="#087d12"/>
<circle cx="112.258" cy="374.968" r="3" fill="#087d12"/>
<circle cx="170.968" cy="374.968" r="3" fill="#087d12"/>
<circle cx="210.108" cy="472.817" r="3" fill="#087d12"/>
<circle cx="237.505" cy="404.323" r="3" fill="#087d12"/>
<circle cx="190.538" cy="374.968" r="3" fill="#087d12"/>
<circle cx="190.538" cy="453.247" r="3" fill="#087d12"/>
<circle cx="317.742" cy="454.47" r="3" fill="#087d12"/>
<circle cx="237.505" cy="404.323" r="3" fill="#087d12"/>
<circle cx="249.247" cy="374.968" r="3" fill="#087d12"/>
<circle cx="317.742" cy="374.968" r="3" fill="#087d12"/>
<text x="16" y="548" font-family="Arial, sans-serif" font-size="12" fill="#6b7280">32. shape output / intersect example</text>
</svg>